<?xml version="1.0" encoding="utf-8"?>
<!-- Generator: Adobe Illustrator 17.1.0, SVG Export Plug-In . SVG Version: 6.00 Build 0)  -->
<!DOCTYPE svg PUBLIC "-//W3C//DTD SVG 1.1//EN" "http://www.w3.org/Graphics/SVG/1.1/DTD/svg11.dtd">
<svg version="1.1" id="Layer_1" xmlns="http://www.w3.org/2000/svg" xmlns:xlink="http://www.w3.org/1999/xlink" x="0px" y="0px"
	 viewBox="0 0 612 792" enable-background="new 0 0 612 792" xml:space="preserve">
<g>
	<g>
		<polygon fill="#FE7E17" points="222.8,147.3 48.2,247.8 48.2,326.3 222.8,225.2 397.4,326.3 397.4,247.8 		"/>
	</g>
	<g>
		<polygon fill="#FE7E17" points="394.2,650.4 219.6,549.9 219.6,471.3 394.2,572.4 568.8,471.3 568.8,549.9 		"/>
	</g>
	<g>
		<polygon fill="#FE7E17" points="48.2,347 222.8,246.5 290.5,285.1 115.9,386.3 115.9,587.3 48.2,548.6 		"/>
	</g>
	<g>
		<polygon fill="#FE7E17" points="483.1,198.2 308.5,97 240.9,136.3 415.4,236.8 415.4,438.4 483.1,399.1 		"/>
	</g>
	<g>
		<polygon fill="#FE7E17" points="134.6,598.8 134.6,397.9 202.2,358.6 202.2,560.2 376.8,660.7 309.1,700 		"/>
	</g>
	<g>
		<polygon fill="#FE7E17" points="568.8,450.7 568.8,249 501.1,210.4 501.1,411.4 326.5,512.5 394.2,551.2 		"/>
	</g>
</g>
</svg>
